<svg version="1.1" viewBox="0.0 0.0 960.0 720.0" fill="none" stroke="none" stroke-linecap="square" stroke-miterlimit="10" xmlns:xlink="http://www.w3.org/1999/xlink" xmlns="http://www.w3.org/2000/svg">

<clipPath id="p.0"><path d="m0 0l960.0 0l0 720.0l-960.0 0l0 -720.0z" clip-rule="nonzero"/></clipPath><g clip-path="url(#p.0)"><path fill="#000000" fill-opacity="0.0" d="m0 0l960.0 0l0 720.0l-960.0 0z" fill-rule="evenodd"/><path fill="#4ad7dc" d="m360.43045 269.021l109.93701 -208.6614l109.93698 208.6614z" fill-rule="evenodd"/><path stroke="#000000" stroke-width="1.0" stroke-linejoin="round" stroke-linecap="butt" d="m360.43045 269.021l109.93701 -208.6614l109.93698 208.6614z" fill-rule="evenodd"/><path fill="#000000" d="m435.11237 200.78001q-1.4375 0 -2.90625 -0.40625q-1.453125 -0.390625 -2.546875 -1.15625l0.15625 1.328125l-1.59375 0l-0.1875 -6.53125l1.1875 0q0.15625 2.640625 1.8125 4.0625q1.65625 1.421875 4.203125 1.421875q1.875 0 3.140625 -1.015625q1.265625 -1.03125 1.265625 -2.8125q0 -1.328125 -0.71875 -2.25q-0.71875 -0.9375 -1.78125 -1.5625q-1.046875 -0.640625 -2.859375 -1.46875q-2.046875 -0.984375 -3.265625 -1.71875q-1.203125 -0.734375 -2.0625 -1.9375q-0.859375 -1.21875 -0.859375 -2.984375q0 -1.234375 0.5625 -2.453125q0.5625 -1.234375 1.953125 -2.09375q1.40625 -0.859375 3.703125 -0.859375q1.375 0 2.765625 0.359375q1.40625 0.34375 2.5625 1.203125l-0.109375 -1.3125l1.5625 0l0 6.75l-1.109375 0q-0.15625 -2.421875 -1.546875 -4.09375q-1.390625 -1.671875 -3.90625 -1.671875q-1.84375 0 -2.890625 1.03125q-1.03125 1.015625 -1.03125 2.546875q0 1.234375 0.703125 2.125q0.703125 0.890625 1.703125 1.46875q1.015625 0.578125 2.859375 1.4375q2.078125 0.953125 3.34375 1.71875q1.28125 0.765625 2.171875 2.015625q0.890625 1.234375 0.890625 3.046875q0 1.703125 -0.84375 3.03125q-0.84375 1.3125 -2.46875 2.046875q-1.625 0.734375 -3.859375 0.734375zm14.163391 0q-2.234375 0 -3.421875 -1.0q-1.171875 -1.015625 -1.171875 -2.640625q0 -1.78125 1.421875 -3.0q1.421875 -1.234375 3.578125 -1.828125q2.171875 -0.59375 4.34375 -0.5625l0 -1.90625q0 -2.0 -0.578125 -3.109375q-0.578125 -1.125 -2.484375 -1.125q-0.953125 0 -1.8125 0.40625q-0.859375 0.390625 -1.25 1.1875q0.390625 0.4375 0.390625 1.171875q0 0.453125 -0.34375 0.875q-0.328125 0.40625 -0.96875 0.40625q-0.640625 0 -1.015625 -0.40625q-0.359375 -0.421875 -0.359375 -1.09375q0 -1.015625 0.78125 -1.859375q0.78125 -0.84375 2.171875 -1.328125q1.390625 -0.484375 3.109375 -0.484375q2.578125 0 3.796875 1.359375q1.234375 1.359375 1.203125 4.3125l-0.03125 6.890625q0 0.984375 -0.125 2.078125l2.171875 -0.109375l0 1.28125l-4.375 0q-0.09375 -0.453125 -0.21875 -1.75q-2.234375 2.234375 -4.8125 2.234375zm0.703125 -1.734375q1.171875 0 2.109375 -0.4375q0.953125 -0.453125 1.9375 -1.375q-0.03125 -0.46875 -0.03125 -1.5625l0.03125 -2.890625q-2.515625 0.09375 -4.484375 1.03125q-1.953125 0.9375 -1.953125 2.859375q0 1.140625 0.671875 1.765625q0.671875 0.609375 1.71875 0.609375zm10.974915 0.328125q0.890625 0 1.265625 -0.4375q0.390625 -0.453125 0.46875 -1.140625q0.078125 -0.6875 0.078125 -2.15625l-0.03125 -9.359375l-2.515625 0.0625l0 -1.375l2.515625 0l0 -0.640625q0 -3.5625 1.296875 -5.4375q1.3125 -1.890625 4.21875 -1.890625q1.171875 0 2.21875 0.578125q1.0625 0.578125 1.0625 1.6875q0 0.609375 -0.359375 1.0q-0.34375 0.375 -0.953125 0.375q-0.625 0 -0.953125 -0.40625q-0.3125 -0.421875 -0.3125 -0.84375q0 -0.4375 0.15625 -0.765625q-0.21875 -0.25 -0.59375 -0.375q-0.359375 -0.140625 -0.71875 -0.140625q-1.328125 0 -1.875 1.0625q-0.546875 1.046875 -0.546875 2.578125l0 3.21875l4.140625 0l0 1.203125l-4.140625 0.078125l0.03125 10.796875q0 1.375 -0.125 2.078125l1.921875 -0.078125l0 1.25l-6.25 0l0 -0.921875zm17.627472 1.40625q-2.109375 0 -3.8125 -0.984375q-1.703125 -1.0 -2.6875 -2.859375q-0.984375 -1.859375 -0.984375 -4.28125q0 -2.140625 0.984375 -4.015625q0.984375 -1.890625 2.75 -3.015625q1.765625 -1.140625 4.0 -1.140625q1.75 0 3.15625 0.765625q1.40625 0.765625 2.234375 2.28125q0.828125 1.515625 0.828125 3.71875l-10.796875 0.1875q-0.015625 3.671875 1.21875 5.734375q1.234375 2.046875 3.84375 2.046875q1.40625 0 2.890625 -0.734375q1.5 -0.734375 2.296875 -1.8125l0.734375 0.625q-1.171875 1.78125 -3.03125 2.640625q-1.84375 0.84375 -3.625 0.84375zm3.59375 -10.625q0 -1.84375 -0.828125 -3.15625q-0.828125 -1.328125 -2.484375 -1.328125q-3.796875 0 -4.515625 4.484375l7.828125 0zm11.365723 10.625q-4.203125 0 -4.171875 -5.640625l0.0625 -8.890625l-2.359375 0.03125l0 -1.3125q1.46875 -0.03125 2.5 -1.328125q1.03125 -1.3125 1.515625 -2.96875l1.046875 0l0 4.296875l5.15625 0l0 1.203125l-5.15625 0.046875q-0.03125 4.703125 -0.046875 6.515625q-0.015625 1.796875 -0.015625 2.015625q0 2.171875 0.515625 3.234375q0.53125 1.0625 1.8125 1.0625q0.796875 0 1.578125 -0.484375q0.78125 -0.5 1.359375 -1.359375l0.828125 0.671875q-1.1875 1.78125 -2.359375 2.34375q-1.15625 0.5625 -2.265625 0.5625zm8.457764 7.828125q-1.0 0 -1.65625 -0.5q-0.640625 -0.484375 -0.640625 -1.375q0 -0.578125 0.375 -1.03125q0.390625 -0.4375 1.015625 -0.4375q0.609375 0 0.890625 0.421875q0.296875 0.4375 0.296875 0.890625q0 0.28125 -0.03125 0.4375q0.09375 0.0625 0.34375 0.0625q0.390625 0 0.796875 -0.3125q0.421875 -0.3125 0.765625 -0.890625q0.703125 -1.15625 2.140625 -5.234375l-4.78125 -10.25q-1.28125 -2.75 -1.625 -4.21875l-1.46875 0.046875l0 -1.25l6.34375 0l0 0.921875l-0.125 0q-1.4375 0.09375 -1.4375 1.21875q0 0.765625 0.734375 2.390625l3.59375 7.703125q0.90625 -2.609375 2.625 -7.703125q1.046875 -3.03125 1.5 -3.390625l-2.109375 0.109375l0 -1.25l4.8124695 0l0 0.921875q-1.046875 0.390625 -1.609375 1.265625q-0.5625 0.875 -1.2343445 2.71875l-3.84375 10.703125q-1.09375 3.09375 -1.8125 4.671875q-0.71875 1.578125 -1.625 2.46875q-0.90625 0.890625 -2.234375 0.890625z" fill-rule="nonzero"/><path fill="#ad49be" d="m360.43045 269.021l109.93701 208.6614l109.93698 -208.6614z" fill-rule="evenodd"/><path stroke="#000000" stroke-width="1.0" stroke-linejoin="round" stroke-linecap="butt" d="m360.43045 269.021l109.93701 208.6614l109.93698 -208.6614z" fill-rule="evenodd"/><path fill="#fef445" d="m690.2902 477.68365l-109.93701 -208.6614l-109.93698 208.6614z" fill-rule="evenodd"/><path stroke="#000000" stroke-width="1.0" stroke-linejoin="round" stroke-linecap="butt" d="m690.2902 477.68365l-109.93701 -208.6614l-109.93698 208.6614z" fill-rule="evenodd"/><path fill="#38b981" d="m470.41623 477.68365l-109.93701 -208.6614l-109.93701 208.6614z" fill-rule="evenodd"/><path stroke="#000000" stroke-width="1.0" stroke-linejoin="round" stroke-linecap="butt" d="m470.41623 477.68365l-109.93701 -208.6614l-109.93701 208.6614z" fill-rule="evenodd"/><path fill="#000000" d="m326.6667 405.9427q1.078125 -0.03125 1.53125 -0.484375q0.453125 -0.46875 0.515625 -1.09375q0.0625 -0.625 0.0625 -2.1875l0 -13.25q0 -1.28125 0.09375 -2.203125l-2.203125 0.125l0 -1.34375l14.21875 0l0.15625 5.359375l-1.015625 0q0 -2.515625 -1.140625 -3.4375q-1.125 -0.921875 -3.078125 -0.859375l-2.25 0.0625q-1.0625 0.03125 -1.515625 0.5q-0.4375 0.453125 -0.515625 1.109375q-0.078125 0.65625 -0.078125 2.171875l0 5.265625l5.328125 0.03125l-0.203125 -2.671875l1.34375 0l0 6.46875l-0.984375 0q0 -1.15625 -0.265625 -1.734375q-0.25 -0.59375 -0.8125 -0.796875q-0.546875 -0.21875 -1.53125 -0.21875q-0.671875 0 -1.03125 0.03125l-1.84375 0.09375l0 6.4375q0 1.625 -0.09375 2.421875l3.125 -0.125l0 1.34375l-7.8125 0l0 -1.015625zm24.065277 1.5q-2.109375 0 -3.875 -0.984375q-1.765625 -1.0 -2.796875 -2.78125q-1.03125 -1.78125 -1.03125 -4.015625q0 -2.390625 1.015625 -4.328125q1.015625 -1.953125 2.78125 -3.0625q1.765625 -1.125 3.90625 -1.125q2.109375 0 3.890625 1.03125q1.78125 1.015625 2.796875 2.796875q1.03125 1.78125 1.03125 3.953125q0 2.328125 -1.03125 4.296875q-1.015625 1.953125 -2.78125 3.09375q-1.765625 1.125 -3.90625 1.125zm0.25 -1.21875q2.234375 0 3.28125 -1.84375q1.0625 -1.84375 1.0625 -4.5625q0 -3.09375 -1.15625 -5.296875q-1.140625 -2.21875 -3.4375 -2.21875q-2.265625 0 -3.421875 1.875q-1.140625 1.875 -1.140625 4.59375q0 1.96875 0.53125 3.671875q0.53125 1.6875 1.625 2.734375q1.09375 1.046875 2.65625 1.046875zm17.68396 1.21875q-2.109375 0 -3.875 -0.984375q-1.765625 -1.0 -2.796875 -2.78125q-1.03125 -1.78125 -1.03125 -4.015625q0 -2.390625 1.015625 -4.328125q1.015625 -1.953125 2.78125 -3.0625q1.765625 -1.125 3.90625 -1.125q2.109375 0 3.890625 1.03125q1.78125 1.015625 2.796875 2.796875q1.03125 1.78125 1.03125 3.953125q0 2.328125 -1.03125 4.296875q-1.015625 1.953125 -2.78125 3.09375q-1.765625 1.125 -3.90625 1.125zm0.25 -1.21875q2.234375 0 3.28125 -1.84375q1.0625 -1.84375 1.0625 -4.5625q0 -3.09375 -1.15625 -5.296875q-1.140625 -2.21875 -3.4375 -2.21875q-2.265625 0 -3.421875 1.875q-1.140625 1.875 -1.140625 4.59375q0 1.96875 0.53125 3.671875q0.53125 1.6875 1.625 2.734375q1.09375 1.046875 2.65625 1.046875zm16.637085 1.21875q-1.890625 0 -3.40625 -0.9375q-1.5 -0.953125 -2.359375 -2.703125q-0.859375 -1.75 -0.859375 -4.078125q0 -2.453125 1.015625 -4.40625q1.015625 -1.96875 2.796875 -3.0625q1.796875 -1.109375 4.078125 -1.109375q0.9375 0 1.9375 0.265625q1.0 0.25 1.640625 0.59375l0 -4.203125q0 -1.171875 0.09375 -2.0l-2.171875 0.125l0 -1.28125q1.8125 0 2.59375 -0.21875q0.78125 -0.21875 1.203125 -0.609375l0.890625 0l0 19.890625q0 0.984375 -0.125 2.078125l2.171875 -0.109375l0 1.28125l-4.375 0q-0.15625 -0.828125 -0.21875 -1.59375q-0.890625 0.984375 -2.171875 1.53125q-1.265625 0.546875 -2.734375 0.546875zm1.109375 -1.5q0.984375 0 2.0 -0.5625q1.03125 -0.5625 1.734375 -1.453125q-0.03125 -0.5 -0.03125 -1.6875l0.03125 -8.828125q-1.4375 -1.078125 -3.40625 -1.078125q-2.203125 0 -3.5625 1.828125q-1.34375 1.828125 -1.34375 4.828125q0 3.125 1.203125 5.046875q1.203125 1.90625 3.375 1.90625z" fill-rule="nonzero"/><path fill="#000000" fill-opacity="0.0" d="m520.8505 366.64706l122.456726 0l0 57.95276l-122.456726 0z" fill-rule="evenodd"/><path fill="#000000" d="m538.7099 405.5714q-1.4375 0 -2.90625 -0.40625q-1.453125 -0.390625 -2.546875 -1.15625l0.15625 1.328125l-1.59375 0l-0.1875 -6.53125l1.1875 0q0.15625 2.640625 1.8125 4.0625q1.65625 1.421875 4.203125 1.421875q1.875 0 3.140625 -1.015625q1.265625 -1.03125 1.265625 -2.8125q0 -1.328125 -0.71875 -2.25q-0.71875 -0.9375 -1.78125 -1.5625q-1.046875 -0.640625 -2.859375 -1.46875q-2.046875 -0.984375 -3.265625 -1.71875q-1.203125 -0.734375 -2.0625 -1.9375q-0.859375 -1.21875 -0.859375 -2.984375q0 -1.234375 0.5625 -2.453125q0.5625 -1.234375 1.953125 -2.09375q1.40625 -0.859375 3.703125 -0.859375q1.375 0 2.765625 0.359375q1.40625 0.34375 2.5625 1.203125l-0.109375 -1.3125l1.5625 0l0 6.75l-1.109375 0q-0.15625 -2.421875 -1.546875 -4.09375q-1.390625 -1.671875 -3.90625 -1.671875q-1.84375 0 -2.890625 1.03125q-1.03125 1.015625 -1.03125 2.546875q0 1.234375 0.703125 2.125q0.703125 0.890625 1.703125 1.46875q1.015625 0.578125 2.859375 1.4375q2.078125 0.953125 3.34375 1.71875q1.28125 0.765625 2.171875 2.015625q0.890625 1.234375 0.890625 3.046875q0 1.703125 -0.84375 3.03125q-0.84375 1.3125 -2.46875 2.046875q-1.625 0.734375 -3.859375 0.734375zm9.569641 -1.40625q0.890625 0 1.28125 -0.4375q0.40625 -0.453125 0.46875 -1.15625q0.078125 -0.703125 0.078125 -2.140625l0 -14.5q0 -1.171875 0.09375 -2.0l-2.171875 0.125l0 -1.28125q1.84375 0 2.625 -0.21875q0.78125 -0.21875 1.203125 -0.609375l0.890625 0l0 9.34375q1.078125 -0.890625 2.421875 -1.453125q1.34375 -0.5625 2.609375 -0.5625q2.640625 0 3.828125 1.65625q1.203125 1.65625 1.234375 5.203125l0.03125 5.703125q0 1.375 -0.125 2.078125l1.921875 -0.078125l0 1.25l-6.25 0l0 -0.921875q0.890625 0 1.265625 -0.4375q0.390625 -0.453125 0.46875 -1.140625q0.078125 -0.6875 0.078125 -2.15625l0 -4.296875q0 -2.640625 -0.828125 -3.9375q-0.828125 -1.296875 -2.609375 -1.296875q-1.125 0 -2.25 0.53125q-1.125 0.53125 -1.796875 1.359375l0 9.046875q0 1.203125 -0.15625 2.078125l1.9375 -0.078125l0 1.25l-6.25 0l0 -0.921875zm26.08191 1.40625q-2.109375 0 -3.8125 -0.984375q-1.703125 -1.0 -2.6875 -2.859375q-0.984375 -1.859375 -0.984375 -4.28125q0 -2.140625 0.984375 -4.015625q0.984375 -1.890625 2.75 -3.015625q1.765625 -1.140625 4.0 -1.140625q1.75 0 3.15625 0.765625q1.40625 0.765625 2.234375 2.28125q0.828125 1.515625 0.828125 3.71875l-10.796875 0.1875q-0.015625 3.671875 1.21875 5.734375q1.234375 2.046875 3.84375 2.046875q1.40625 0 2.890625 -0.734375q1.5 -0.734375 2.296875 -1.8125l0.734375 0.625q-1.171875 1.78125 -3.03125 2.640625q-1.84375 0.84375 -3.625 0.84375zm3.59375 -10.625q0 -1.84375 -0.828125 -3.15625q-0.828125 -1.328125 -2.484375 -1.328125q-3.796875 0 -4.515625 4.484375l7.828125 0zm5.3032227 9.21875q0.890625 0 1.265625 -0.4375q0.390625 -0.453125 0.453125 -1.140625q0.078125 -0.6875 0.078125 -2.15625l0 -14.5q0 -1.171875 0.09375 -2.0l-2.171875 0.125l0 -1.28125q1.84375 0 2.625 -0.21875q0.78125 -0.21875 1.203125 -0.609375l0.890625 0l0.03125 19.890625q0 1.203125 -0.15625 2.078125l1.9375 -0.078125l0 1.25l-6.25 0l0 -0.921875zm14.401062 1.40625q-4.203125 0 -4.171875 -5.640625l0.0625 -8.890625l-2.359375 0.03125l0 -1.3125q1.46875 -0.03125 2.5 -1.328125q1.03125 -1.3125 1.515625 -2.96875l1.046875 0l0 4.296875l5.15625 0l0 1.203125l-5.15625 0.046875q-0.03125 4.703125 -0.046875 6.515625q-0.015625 1.796875 -0.015625 2.015625q0 2.171875 0.515625 3.234375q0.53125 1.0625 1.8125 1.0625q0.796875 0 1.578125 -0.484375q0.78125 -0.5 1.359375 -1.359375l0.828125 0.671875q-1.1875 1.78125 -2.359375 2.34375q-1.15625 0.5625 -2.265625 0.5625zm13.520203 0q-2.109375 0 -3.8125 -0.984375q-1.703125 -1.0 -2.6875 -2.859375q-0.984375 -1.859375 -0.984375 -4.28125q0 -2.140625 0.984375 -4.015625q0.984375 -1.890625 2.75 -3.015625q1.765625 -1.140625 4.0 -1.140625q1.75 0 3.15625 0.765625q1.40625 0.765625 2.234375 2.28125q0.828125 1.515625 0.828125 3.71875l-10.796875 0.1875q-0.015625 3.671875 1.21875 5.734375q1.234375 2.046875 3.84375 2.046875q1.40625 0 2.890625 -0.734375q1.5 -0.734375 2.296875 -1.8125l0.734375 0.625q-1.171875 1.78125 -3.03125 2.640625q-1.84375 0.84375 -3.625 0.84375zm3.59375 -10.625q0 -1.84375 -0.828125 -3.15625q-0.828125 -1.328125 -2.484375 -1.328125q-3.796875 0 -4.515625 4.484375l7.828125 0zm5.6001587 9.21875q0.890625 0 1.265625 -0.4375q0.390625 -0.453125 0.46875 -1.140625q0.078125 -0.6875 0.078125 -2.15625l0 -7.0q0 -1.28125 0.125 -1.984375l-2.171875 0.09375l0 -1.265625l0.9375 0q1.171875 0 1.6875 -0.1875q0.53125 -0.203125 0.984375 -0.640625l0.890625 0q0.125 1.203125 0.15625 3.046875q0.765625 -1.265625 2.1875 -2.234375q1.421875 -0.984375 2.953125 -0.984375q0.921875 0 1.53125 0.484375q0.625 0.484375 0.625 1.4375q0 0.5 -0.390625 0.984375q-0.375 0.484375 -1.078125 0.484375q-0.6875 0 -1.109375 -0.5q-0.421875 -0.5 -0.34375 -1.203125q-1.15625 -0.03125 -2.34375 0.890625q-1.171875 0.90625 -2.0 2.4375l0.03125 7.546875q0 1.375 -0.125 2.078125l1.9375 -0.078125l0 1.25l-6.296875 0l0 -0.921875z" fill-rule="nonzero"/><path fill="#000000" fill-opacity="0.0" d="m412.58792 307.83203l115.55905 0l0 57.95276l-115.55905 0z" fill-rule="evenodd"/><path fill="#000000" d="m423.27542 345.2564q1.078125 -0.03125 1.53125 -0.484375q0.453125 -0.46875 0.515625 -1.09375q0.0625 -0.625 0.0625 -2.1875l0 -13.25q0 -1.28125 0.09375 -2.203125l-2.203125 0.125l0 -1.34375l6.890625 0l0 1.0q-1.0625 0.03125 -1.53125 0.5q-0.453125 0.453125 -0.515625 1.09375q-0.0625 0.625 -0.0625 2.1875l0 5.078125l10.96875 0l0 -6.4375q0 -1.28125 0.09375 -2.203125l-2.203125 0.125l0 -1.34375l6.890625 0l0 1.0q-1.0625 0.03125 -1.53125 0.5q-0.453125 0.453125 -0.515625 1.09375q-0.0625 0.625 -0.0625 2.1875l0 13.03125q0 1.625 -0.09375 2.421875l2.203125 -0.125l0 1.34375l-6.890625 0l0 -1.015625q1.078125 -0.03125 1.53125 -0.484375q0.46875 -0.46875 0.515625 -1.09375q0.0625 -0.625 0.0625 -2.1875l0 -5.578125l-10.96875 0.125l0 6.59375q0 1.625 -0.09375 2.421875l2.203125 -0.125l0 1.34375l-6.890625 0l0 -1.015625zm30.990082 1.5q-2.109375 0 -3.8125 -0.984375q-1.703125 -1.0 -2.6875 -2.859375q-0.984375 -1.859375 -0.984375 -4.28125q0 -2.140625 0.984375 -4.015625q0.984375 -1.890625 2.75 -3.015625q1.765625 -1.140625 4.0 -1.140625q1.75 0 3.15625 0.765625q1.40625 0.765625 2.234375 2.28125q0.828125 1.515625 0.828125 3.71875l-10.796875 0.1875q-0.015625 3.671875 1.21875 5.734375q1.234375 2.046875 3.84375 2.046875q1.40625 0 2.890625 -0.734375q1.5 -0.734375 2.296875 -1.8125l0.734375 0.625q-1.171875 1.78125 -3.03125 2.640625q-1.84375 0.84375 -3.625 0.84375zm3.59375 -10.625q0 -1.84375 -0.828125 -3.15625q-0.828125 -1.328125 -2.484375 -1.328125q-3.796875 0 -4.515625 4.484375l7.828125 0zm9.896973 10.625q-2.234375 0 -3.421875 -1.0q-1.171875 -1.015625 -1.171875 -2.640625q0 -1.78125 1.421875 -3.0q1.421875 -1.234375 3.578125 -1.828125q2.171875 -0.59375 4.34375 -0.5625l0 -1.90625q0 -2.0 -0.578125 -3.109375q-0.578125 -1.125 -2.484375 -1.125q-0.953125 0 -1.8125 0.40625q-0.859375 0.390625 -1.25 1.1875q0.390625 0.4375 0.390625 1.171875q0 0.453125 -0.34375 0.875q-0.328125 0.40625 -0.96875 0.40625q-0.640625 0 -1.015625 -0.40625q-0.359375 -0.421875 -0.359375 -1.09375q0 -1.015625 0.78125 -1.859375q0.78125 -0.84375 2.171875 -1.328125q1.390625 -0.484375 3.109375 -0.484375q2.578125 0 3.796875 1.359375q1.234375 1.359375 1.203125 4.3125l-0.03125 6.890625q0 0.984375 -0.125 2.078125l2.171875 -0.109375l0 1.28125l-4.375 0q-0.09375 -0.453125 -0.21875 -1.75q-2.234375 2.234375 -4.8125 2.234375zm0.703125 -1.734375q1.171875 0 2.109375 -0.4375q0.953125 -0.453125 1.9375 -1.375q-0.03125 -0.46875 -0.03125 -1.5625l0.03125 -2.890625q-2.515625 0.09375 -4.484375 1.03125q-1.953125 0.9375 -1.953125 2.859375q0 1.140625 0.671875 1.765625q0.671875 0.609375 1.71875 0.609375zm10.52179 0.328125q0.890625 0 1.265625 -0.4375q0.390625 -0.453125 0.453125 -1.140625q0.078125 -0.6875 0.078125 -2.15625l0 -14.5q0 -1.171875 0.09375 -2.0l-2.171875 0.125l0 -1.28125q1.84375 0 2.625 -0.21875q0.78125 -0.21875 1.203125 -0.609375l0.890625 0l0.03125 19.890625q0 1.203125 -0.15625 2.078125l1.9375 -0.078125l0 1.25l-6.25 0l0 -0.921875zm14.4010315 1.40625q-4.203125 0 -4.171875 -5.640625l0.0625 -8.890625l-2.359375 0.03125l0 -1.3125q1.46875 -0.03125 2.5 -1.328125q1.03125 -1.3125 1.515625 -2.96875l1.046875 0l0 4.296875l5.15625 0l0 1.203125l-5.15625 0.046875q-0.03125 4.703125 -0.046875 6.515625q-0.015625 1.796875 -0.015625 2.015625q0 2.171875 0.515625 3.234375q0.53125 1.0625 1.8125 1.0625q0.796875 0 1.578125 -0.484375q0.78125 -0.5 1.359375 -1.359375l0.828125 0.671875q-1.1875 1.78125 -2.359375 2.34375q-1.15625 0.5625 -2.265625 0.5625zm5.8015137 -1.40625q0.890625 0 1.28125 -0.4375q0.40625 -0.453125 0.46875 -1.15625q0.078125 -0.703125 0.078125 -2.140625l0 -14.5q0 -1.171875 0.09375 -2.0l-2.171875 0.125l0 -1.28125q1.84375 0 2.625 -0.21875q0.78125 -0.21875 1.203125 -0.609375l0.890625 0l0 9.34375q1.078125 -0.890625 2.421875 -1.453125q1.34375 -0.5625 2.609375 -0.5625q2.640625 0 3.8280945 1.65625q1.203125 1.65625 1.234375 5.203125l0.03125 5.703125q0 1.375 -0.125 2.078125l1.921875 -0.078125l0 1.25l-6.2499695 0l0 -0.921875q0.890625 0 1.265625 -0.4375q0.390625 -0.453125 0.46875 -1.140625q0.078125 -0.6875 0.078125 -2.15625l0 -4.296875q0 -2.640625 -0.828125 -3.9375q-0.828125 -1.296875 -2.609375 -1.296875q-1.125 0 -2.25 0.53125q-1.125 0.53125 -1.796875 1.359375l0 9.046875q0 1.203125 -0.15625 2.078125l1.9375 -0.078125l0 1.25l-6.25 0l0 -0.921875z" fill-rule="nonzero"/></g></svg>