<svg version="1.1"  fill="none" stroke="none" stroke-linecap="square" stroke-miterlimit="10" xmlns:xlink="http://www.w3.org/1999/xlink" xmlns="http://www.w3.org/2000/svg"><clipPath id="p.0"><path d="m0 0l960.0 0l0 720.0l-960.0 0l0 -720.0z" clip-rule="nonzero"/></clipPath><g clip-path="url(#p.0)"><path fill="#000000" fill-opacity="0.0" d="m0 0l960.0 0l0 720.0l-960.0 0z" fill-rule="evenodd"/><path fill="#38b981" d="m470.41623 477.68365l-109.93701 -208.6614l-109.93701 208.6614z" fill-rule="evenodd"/><path stroke="#000000" stroke-width="1.0" stroke-linejoin="round" stroke-linecap="butt" d="m470.41623 477.68365l-109.93701 -208.6614l-109.93701 208.6614z" fill-rule="evenodd"/><path fill="#000000" d="m326.6667 405.9427q1.078125 -0.03125 1.53125 -0.484375q0.453125 -0.46875 0.515625 -1.09375q0.0625 -0.625 0.0625 -2.1875l0 -13.25q0 -1.28125 0.09375 -2.203125l-2.203125 0.125l0 -1.34375l14.21875 0l0.15625 5.359375l-1.015625 0q0 -2.515625 -1.140625 -3.4375q-1.125 -0.921875 -3.078125 -0.859375l-2.25 0.0625q-1.0625 0.03125 -1.515625 0.5q-0.4375 0.453125 -0.515625 1.109375q-0.078125 0.65625 -0.078125 2.171875l0 5.265625l5.328125 0.03125l-0.203125 -2.671875l1.34375 0l0 6.46875l-0.984375 0q0 -1.15625 -0.265625 -1.734375q-0.25 -0.59375 -0.8125 -0.796875q-0.546875 -0.21875 -1.53125 -0.21875q-0.671875 0 -1.03125 0.03125l-1.84375 0.09375l0 6.4375q0 1.625 -0.09375 2.421875l3.125 -0.125l0 1.34375l-7.8125 0l0 -1.015625zm24.065277 1.5q-2.109375 0 -3.875 -0.984375q-1.765625 -1.0 -2.796875 -2.78125q-1.03125 -1.78125 -1.03125 -4.015625q0 -2.390625 1.015625 -4.328125q1.015625 -1.953125 2.78125 -3.0625q1.765625 -1.125 3.90625 -1.125q2.109375 0 3.890625 1.03125q1.78125 1.015625 2.796875 2.796875q1.03125 1.78125 1.03125 3.953125q0 2.328125 -1.03125 4.296875q-1.015625 1.953125 -2.78125 3.09375q-1.765625 1.125 -3.90625 1.125zm0.25 -1.21875q2.234375 0 3.28125 -1.84375q1.0625 -1.84375 1.0625 -4.5625q0 -3.09375 -1.15625 -5.296875q-1.140625 -2.21875 -3.4375 -2.21875q-2.265625 0 -3.421875 1.875q-1.140625 1.875 -1.140625 4.59375q0 1.96875 0.53125 3.671875q0.53125 1.6875 1.625 2.734375q1.09375 1.046875 2.65625 1.046875zm17.68396 1.21875q-2.109375 0 -3.875 -0.984375q-1.765625 -1.0 -2.796875 -2.78125q-1.03125 -1.78125 -1.03125 -4.015625q0 -2.390625 1.015625 -4.328125q1.015625 -1.953125 2.78125 -3.0625q1.765625 -1.125 3.90625 -1.125q2.109375 0 3.890625 1.03125q1.78125 1.015625 2.796875 2.796875q1.03125 1.78125 1.03125 3.953125q0 2.328125 -1.03125 4.296875q-1.015625 1.953125 -2.78125 3.09375q-1.765625 1.125 -3.90625 1.125zm0.25 -1.21875q2.234375 0 3.28125 -1.84375q1.0625 -1.84375 1.0625 -4.5625q0 -3.09375 -1.15625 -5.296875q-1.140625 -2.21875 -3.4375 -2.21875q-2.265625 0 -3.421875 1.875q-1.140625 1.875 -1.140625 4.59375q0 1.96875 0.53125 3.671875q0.53125 1.6875 1.625 2.734375q1.09375 1.046875 2.65625 1.046875zm16.637085 1.21875q-1.890625 0 -3.40625 -0.9375q-1.5 -0.953125 -2.359375 -2.703125q-0.859375 -1.75 -0.859375 -4.078125q0 -2.453125 1.015625 -4.40625q1.015625 -1.96875 2.796875 -3.0625q1.796875 -1.109375 4.078125 -1.109375q0.9375 0 1.9375 0.265625q1.0 0.25 1.640625 0.59375l0 -4.203125q0 -1.171875 0.09375 -2.0l-2.171875 0.125l0 -1.28125q1.8125 0 2.59375 -0.21875q0.78125 -0.21875 1.203125 -0.609375l0.890625 0l0 19.890625q0 0.984375 -0.125 2.078125l2.171875 -0.109375l0 1.28125l-4.375 0q-0.15625 -0.828125 -0.21875 -1.59375q-0.890625 0.984375 -2.171875 1.53125q-1.265625 0.546875 -2.734375 0.546875zm1.109375 -1.5q0.984375 0 2.0 -0.5625q1.03125 -0.5625 1.734375 -1.453125q-0.03125 -0.5 -0.03125 -1.6875l0.03125 -8.828125q-1.4375 -1.078125 -3.40625 -1.078125q-2.203125 0 -3.5625 1.828125q-1.34375 1.828125 -1.34375 4.828125q0 3.125 1.203125 5.046875q1.203125 1.90625 3.375 1.90625z" fill-rule="nonzero"/></g></svg>