<svg version="1.1"  fill="none" stroke="none" stroke-linecap="square" stroke-miterlimit="10" xmlns:xlink="http://www.w3.org/1999/xlink" xmlns="http://www.w3.org/2000/svg"><clipPath id="p.0"><path d="m0 0l960.0 0l0 720.0l-960.0 0l0 -720.0z" clip-rule="nonzero"/></clipPath><g clip-path="url(#p.0)"><path fill="#000000" fill-opacity="0.0" d="m0 0l960.0 0l0 720.0l-960.0 0z" fill-rule="evenodd"/><path fill="#ad49be" d="m360.43045 269.021l109.93701 208.6614l109.93698 -208.6614z" fill-rule="evenodd"/><path stroke="#000000" stroke-width="1.0" stroke-linejoin="round" stroke-linecap="butt" d="m360.43045 269.021l109.93701 208.6614l109.93698 -208.6614z" fill-rule="evenodd"/><path fill="#000000" fill-opacity="0.0" d="m412.58792 307.83203l115.55905 0l0 57.95276l-115.55905 0z" fill-rule="evenodd"/><path fill="#000000" d="m423.27542 345.2564q1.078125 -0.03125 1.53125 -0.484375q0.453125 -0.46875 0.515625 -1.09375q0.0625 -0.625 0.0625 -2.1875l0 -13.25q0 -1.28125 0.09375 -2.203125l-2.203125 0.125l0 -1.34375l6.890625 0l0 1.0q-1.0625 0.03125 -1.53125 0.5q-0.453125 0.453125 -0.515625 1.09375q-0.0625 0.625 -0.0625 2.1875l0 5.078125l10.96875 0l0 -6.4375q0 -1.28125 0.09375 -2.203125l-2.203125 0.125l0 -1.34375l6.890625 0l0 1.0q-1.0625 0.03125 -1.53125 0.5q-0.453125 0.453125 -0.515625 1.09375q-0.0625 0.625 -0.0625 2.1875l0 13.03125q0 1.625 -0.09375 2.421875l2.203125 -0.125l0 1.34375l-6.890625 0l0 -1.015625q1.078125 -0.03125 1.53125 -0.484375q0.46875 -0.46875 0.515625 -1.09375q0.0625 -0.625 0.0625 -2.1875l0 -5.578125l-10.96875 0.125l0 6.59375q0 1.625 -0.09375 2.421875l2.203125 -0.125l0 1.34375l-6.890625 0l0 -1.015625zm30.990082 1.5q-2.109375 0 -3.8125 -0.984375q-1.703125 -1.0 -2.6875 -2.859375q-0.984375 -1.859375 -0.984375 -4.28125q0 -2.140625 0.984375 -4.015625q0.984375 -1.890625 2.75 -3.015625q1.765625 -1.140625 4.0 -1.140625q1.75 0 3.15625 0.765625q1.40625 0.765625 2.234375 2.28125q0.828125 1.515625 0.828125 3.71875l-10.796875 0.1875q-0.015625 3.671875 1.21875 5.734375q1.234375 2.046875 3.84375 2.046875q1.40625 0 2.890625 -0.734375q1.5 -0.734375 2.296875 -1.8125l0.734375 0.625q-1.171875 1.78125 -3.03125 2.640625q-1.84375 0.84375 -3.625 0.84375zm3.59375 -10.625q0 -1.84375 -0.828125 -3.15625q-0.828125 -1.328125 -2.484375 -1.328125q-3.796875 0 -4.515625 4.484375l7.828125 0zm9.896973 10.625q-2.234375 0 -3.421875 -1.0q-1.171875 -1.015625 -1.171875 -2.640625q0 -1.78125 1.421875 -3.0q1.421875 -1.234375 3.578125 -1.828125q2.171875 -0.59375 4.34375 -0.5625l0 -1.90625q0 -2.0 -0.578125 -3.109375q-0.578125 -1.125 -2.484375 -1.125q-0.953125 0 -1.8125 0.40625q-0.859375 0.390625 -1.25 1.1875q0.390625 0.4375 0.390625 1.171875q0 0.453125 -0.34375 0.875q-0.328125 0.40625 -0.96875 0.40625q-0.640625 0 -1.015625 -0.40625q-0.359375 -0.421875 -0.359375 -1.09375q0 -1.015625 0.78125 -1.859375q0.78125 -0.84375 2.171875 -1.328125q1.390625 -0.484375 3.109375 -0.484375q2.578125 0 3.796875 1.359375q1.234375 1.359375 1.203125 4.3125l-0.03125 6.890625q0 0.984375 -0.125 2.078125l2.171875 -0.109375l0 1.28125l-4.375 0q-0.09375 -0.453125 -0.21875 -1.75q-2.234375 2.234375 -4.8125 2.234375zm0.703125 -1.734375q1.171875 0 2.109375 -0.4375q0.953125 -0.453125 1.9375 -1.375q-0.03125 -0.46875 -0.03125 -1.5625l0.03125 -2.890625q-2.515625 0.09375 -4.484375 1.03125q-1.953125 0.9375 -1.953125 2.859375q0 1.140625 0.671875 1.765625q0.671875 0.609375 1.71875 0.609375zm10.52179 0.328125q0.890625 0 1.265625 -0.4375q0.390625 -0.453125 0.453125 -1.140625q0.078125 -0.6875 0.078125 -2.15625l0 -14.5q0 -1.171875 0.09375 -2.0l-2.171875 0.125l0 -1.28125q1.84375 0 2.625 -0.21875q0.78125 -0.21875 1.203125 -0.609375l0.890625 0l0.03125 19.890625q0 1.203125 -0.15625 2.078125l1.9375 -0.078125l0 1.25l-6.25 0l0 -0.921875zm14.4010315 1.40625q-4.203125 0 -4.171875 -5.640625l0.0625 -8.890625l-2.359375 0.03125l0 -1.3125q1.46875 -0.03125 2.5 -1.328125q1.03125 -1.3125 1.515625 -2.96875l1.046875 0l0 4.296875l5.15625 0l0 1.203125l-5.15625 0.046875q-0.03125 4.703125 -0.046875 6.515625q-0.015625 1.796875 -0.015625 2.015625q0 2.171875 0.515625 3.234375q0.53125 1.0625 1.8125 1.0625q0.796875 0 1.578125 -0.484375q0.78125 -0.5 1.359375 -1.359375l0.828125 0.671875q-1.1875 1.78125 -2.359375 2.34375q-1.15625 0.5625 -2.265625 0.5625zm5.8015137 -1.40625q0.890625 0 1.28125 -0.4375q0.40625 -0.453125 0.46875 -1.15625q0.078125 -0.703125 0.078125 -2.140625l0 -14.5q0 -1.171875 0.09375 -2.0l-2.171875 0.125l0 -1.28125q1.84375 0 2.625 -0.21875q0.78125 -0.21875 1.203125 -0.609375l0.890625 0l0 9.34375q1.078125 -0.890625 2.421875 -1.453125q1.34375 -0.5625 2.609375 -0.5625q2.640625 0 3.8280945 1.65625q1.203125 1.65625 1.234375 5.203125l0.03125 5.703125q0 1.375 -0.125 2.078125l1.921875 -0.078125l0 1.25l-6.2499695 0l0 -0.921875q0.890625 0 1.265625 -0.4375q0.390625 -0.453125 0.46875 -1.140625q0.078125 -0.6875 0.078125 -2.15625l0 -4.296875q0 -2.640625 -0.828125 -3.9375q-0.828125 -1.296875 -2.609375 -1.296875q-1.125 0 -2.25 0.53125q-1.125 0.53125 -1.796875 1.359375l0 9.046875q0 1.203125 -0.15625 2.078125l1.9375 -0.078125l0 1.25l-6.25 0l0 -0.921875z" fill-rule="nonzero"/></g></svg>